# xmcd CD database file
#
# Track frame offsets:
#	187
#	48262
#	95367
#	123042
#	154705
#
# Disc length: 2582 seconds
#
# Revision: 1
# Processed by: cddbd v1.5.2PL0 Copyright (c) Steve Scherf et al.
# Submitted via: CDex 1.51
#
DISCID=2f0a1405
DTITLE=Eric Kloss - Consciousness!
DYEAR=1970
DGENRE=Jazz
TTITLE0=Sunshine Superman
TTITLE1=KAY
TTITLE2=Outward Wisom
TTITLE3=Songs to Again Children
TTITLE4=Consciousness
EXTD=YEAR: 1970
EXTT0=
EXTT1=
EXTT2=
EXTT3=
EXTT4=
PLAYORDER=
